<svg width="26" height="27" viewBox="0 0 26 27" fill="none" xmlns="http://www.w3.org/2000/svg">
<path d="M13.0003 1C6.3729 1 1.00049 6.37895 1.00049 13.0144C1.00049 13.199 1.00511 13.382 1.01357 13.5646V25.0288L12.6016 25.0215C12.734 25.0257 12.8671 25.0288 13.0007 25.0288C19.6281 25.0288 25.0005 19.6498 25.0005 13.0144C25.0005 6.37895 19.6277 1 13.0003 1Z" stroke="#4B76F4" stroke-width="2"/>
<path opacity="0.7" d="M8.35245 16.1603C7.99609 16.1603 7.7063 15.8709 7.7063 15.5153C7.7063 15.3365 7.7798 15.1654 7.90834 15.0448C8.48214 14.5073 8.7981 13.7783 8.7981 12.9919C8.7981 12.2055 8.48214 11.4769 7.90834 10.939C7.7798 10.8187 7.7063 10.6473 7.7063 10.4685C7.7063 10.1129 7.99609 9.82349 8.35245 9.82349C8.51485 9.82349 8.67033 9.88552 8.79079 9.99842C9.61551 10.7725 10.0889 11.8633 10.0889 12.9915C10.0889 14.1197 9.61589 15.2109 8.79079 15.9846C8.67033 16.0975 8.51485 16.1603 8.35245 16.1603Z" fill="#4B76F4" stroke="#4B76F4" stroke-width="0.5"/>
<path opacity="0.7" d="M17.6244 16.1603C17.9807 16.1603 18.2705 15.8709 18.2705 15.5153C18.2705 15.3365 18.197 15.1654 18.0685 15.0448C17.4947 14.5073 17.1787 13.7783 17.1787 12.9919C17.1787 12.2055 17.4947 11.4769 18.0685 10.939C18.197 10.8187 18.2705 10.6473 18.2705 10.4685C18.2705 10.1129 17.9807 9.82349 17.6244 9.82349C17.4619 9.82349 17.3065 9.88552 17.186 9.99842C16.3613 10.7725 15.8879 11.8633 15.8879 12.9915C15.8879 14.1197 16.3609 15.2109 17.186 15.9846C17.3065 16.0975 17.4619 16.1603 17.6244 16.1603Z" fill="#4B76F4" stroke="#4B76F4" stroke-width="0.5"/>
<rect x="11.2134" y="12.1315" width="3.52935" height="1.41174" rx="0.705871" fill="#4B76F4" stroke="#4B76F4" stroke-width="0.5"/>
<path d="M1.00049 24.9997V15.4705L10.5297 24.9997H1.00049Z" stroke="#4B76F4" stroke-width="2"/>
<path d="M1.00049 24.9996V19.3527L6.64746 24.9996H1.00049Z" stroke="#4B76F4" stroke-width="2"/>
</svg>
