<svg width="24" height="27" viewBox="0 0 24 27" fill="none" xmlns="http://www.w3.org/2000/svg">
<path d="M18.9213 12.1579C19.6104 18.5236 22.3158 20.4474 22.3158 20.4474H1C1 20.4474 4.55263 17.9211 4.55263 9.07895C4.55263 7.06889 5.30121 5.14116 6.63371 3.71984C7.9662 2.2985 9.77345 1.50002 11.6579 1.50002C12.0573 1.50002 12.4533 1.5359 12.8421 1.60599" stroke="white" stroke-width="1.87846" stroke-linecap="round" stroke-linejoin="round"/>
<path d="M13.7067 24C13.4986 24.359 13.1998 24.6569 12.8401 24.8639C12.4806 25.071 12.073 25.1801 11.6581 25.1801C11.2431 25.1801 10.8355 25.071 10.476 24.8639C10.1165 24.6569 9.81756 24.359 9.60938 24" stroke="white" stroke-width="1.87846" stroke-linecap="round" stroke-linejoin="round"/>
</svg>
