<svg width="17" height="17" viewBox="0 0 17 17" fill="none" xmlns="http://www.w3.org/2000/svg">
<path fill-rule="evenodd" clip-rule="evenodd" d="M5.26869 0.160934C5.16032 0.0576288 5.01635 0 4.86663 0C4.71692 0 4.57294 0.0576288 4.46458 0.160934L0.180634 4.23977C0.123537 4.2942 0.0780867 4.35966 0.0470369 4.43217C0.0159872 4.50469 -1.50259e-05 4.58276 1.05869e-08 4.66164V15.7328C1.05869e-08 15.8873 0.0613905 16.0355 0.170666 16.1448C0.279942 16.2541 0.428152 16.3155 0.582691 16.3155H3.70125V13.9847C3.70125 13.8317 3.7314 13.6801 3.78996 13.5387C3.84853 13.3973 3.93437 13.2689 4.04258 13.1606C4.1508 13.0524 4.27927 12.9666 4.42066 12.908C4.56205 12.8495 4.71359 12.8193 4.86663 12.8193C5.01967 12.8193 5.17122 12.8495 5.31261 12.908C5.454 12.9666 5.58247 13.0524 5.69068 13.1606C5.7989 13.2689 5.88474 13.3973 5.94331 13.5387C6.00187 13.6801 6.03202 13.8317 6.03202 13.9847V16.3155H9.15174C9.30628 16.3155 9.45449 16.2541 9.56377 16.1448C9.67304 16.0355 9.73443 15.8873 9.73443 15.7328V4.66164C9.7343 4.58267 9.71811 4.50455 9.68686 4.43203C9.65561 4.35951 9.60994 4.2941 9.55263 4.23977L5.26869 0.160934ZM11.3858 7.57509C11.3858 7.42055 11.4472 7.27234 11.5564 7.16307C11.6657 7.05379 11.8139 6.9924 11.9685 6.9924H15.7327C15.8872 6.9924 16.0354 7.05379 16.1447 7.16307C16.254 7.27234 16.3153 7.42055 16.3153 7.57509V15.7328C16.3153 15.8873 16.254 16.0355 16.1447 16.1448C16.0354 16.2541 15.8872 16.3155 15.7327 16.3155H11.9673C11.8128 16.3155 11.6646 16.2541 11.5553 16.1448C11.446 16.0355 11.3846 15.8873 11.3846 15.7328V7.57509H11.3858ZM2.53237 9.04697C2.53237 8.64491 2.85868 8.31861 3.26074 8.31861H6.4737C6.66687 8.31861 6.85213 8.39534 6.98873 8.53194C7.12532 8.66853 7.20206 8.8538 7.20206 9.04697C7.20206 9.24014 7.12532 9.42541 6.98873 9.562C6.85213 9.6986 6.66687 9.77533 6.4737 9.77533H3.26074C3.06756 9.77533 2.8823 9.6986 2.74571 9.562C2.60911 9.42541 2.53237 9.24014 2.53237 9.04697ZM3.26074 5.28046C3.16509 5.28046 3.07037 5.2993 2.98201 5.3359C2.89364 5.3725 2.81334 5.42615 2.74571 5.49379C2.67807 5.56142 2.62442 5.64172 2.58782 5.73009C2.55121 5.81846 2.53237 5.91317 2.53237 6.00882C2.53237 6.10447 2.55121 6.19918 2.58782 6.28755C2.62442 6.37592 2.67807 6.45622 2.74571 6.52385C2.81334 6.59149 2.89364 6.64514 2.98201 6.68174C3.07037 6.71834 3.16509 6.73718 3.26074 6.73718H6.4737C6.56935 6.73718 6.66406 6.71834 6.75243 6.68174C6.8408 6.64514 6.92109 6.59149 6.98873 6.52385C7.05636 6.45622 7.11001 6.37592 7.14662 6.28755C7.18322 6.19918 7.20206 6.10447 7.20206 6.00882C7.20206 5.91317 7.18322 5.81846 7.14662 5.73009C7.11001 5.64172 7.05636 5.56142 6.98873 5.49379C6.92109 5.42615 6.8408 5.3725 6.75243 5.3359C6.66406 5.2993 6.56935 5.28046 6.4737 5.28046H3.26074Z" fill="#434343"/>
</svg>
