<svg width="78" height="80" viewBox="0 0 78 80" fill="none" xmlns="http://www.w3.org/2000/svg">
<g opacity="0.5">
<path d="M38.9967 0.989258C17.457 0.989258 -0.00390625 18.4714 -0.00390625 40.0372C-0.00390625 40.6371 0.0111031 41.2319 0.0386203 41.8255V79.0852L37.7009 79.0614C38.1311 79.0752 38.5639 79.0852 38.9979 79.0852C60.5376 79.0852 77.9985 61.6031 77.9985 40.0372C77.9985 18.4714 60.5364 0.989258 38.9967 0.989258Z" fill="#C1C1C1"/>
<path opacity="0.7" d="M23.893 50.2616C22.7348 50.2616 21.793 49.3211 21.793 48.1652C21.793 47.5842 22.0319 47.0282 22.4496 46.6362C24.3145 44.8892 25.3414 42.5199 25.3414 39.9639C25.3414 37.408 24.3145 35.0399 22.4496 33.2917C22.0319 32.901 21.793 32.3437 21.793 31.7626C21.793 30.6067 22.7348 29.6663 23.893 29.6663C24.4209 29.6663 24.9262 29.8679 25.3177 30.2348C27.9981 32.7507 29.5365 36.2959 29.5365 39.9627C29.5365 43.6294 27.9993 47.1759 25.3177 49.6905C24.9262 50.0575 24.4209 50.2591 23.893 50.2591V50.2616Z" fill="white"/>
<path opacity="0.7" d="M54.0263 50.2616C55.1846 50.2616 56.1264 49.3211 56.1264 48.1652C56.1264 47.5842 55.8875 47.0282 55.4697 46.6362C53.6048 44.8892 52.5779 42.5199 52.5779 39.9639C52.5779 37.408 53.6048 35.0399 55.4697 33.2917C55.8875 32.901 56.1264 32.3437 56.1264 31.7626C56.1264 30.6067 55.1846 29.6663 54.0263 29.6663C53.4985 29.6663 52.9932 29.8679 52.6017 30.2348C49.9213 32.7507 48.3828 36.2959 48.3828 39.9627C48.3828 43.6294 49.92 47.1759 52.6017 49.6905C52.9932 50.0575 53.4985 50.2591 54.0263 50.2591V50.2616Z" fill="white"/>
<rect x="33.1875" y="37.1675" width="11.4708" height="4.5883" rx="2.29415" fill="white" fill-opacity="0.7"/>
<path d="M-0.00390625 78.9908V48.0198L30.9671 78.9908H-0.00390625Z" fill="#D9D9D9"/>
<path d="M-0.00390625 78.9904V60.6372L18.3493 78.9904H-0.00390625Z" fill="#F3F3F3"/>
</g>
</svg>
