<svg width="27" height="24" viewBox="0 0 27 24" fill="none" xmlns="http://www.w3.org/2000/svg">
<path d="M2 19.6801V8.08012C2 6.79882 3.0387 5.76012 4.32 5.76012H4.9C5.63023 5.76012 6.31786 5.41631 6.756 4.83212L9.3312 1.39852C9.46264 1.22326 9.66893 1.12012 9.888 1.12012H17.312C17.5311 1.12012 17.7374 1.22326 17.8688 1.39852L20.444 4.83212C20.8821 5.41631 21.5698 5.76012 22.3 5.76012H22.88C24.1613 5.76012 25.2 6.79882 25.2 8.08012V19.6801C25.2 20.9615 24.1613 22.0001 22.88 22.0001H4.32C3.0387 22.0001 2 20.9615 2 19.6801Z" fill="#4B76F4" stroke="#4B76F4" stroke-width="2.20894" stroke-linecap="round" stroke-linejoin="round"/>
<path d="M13.5463 17.3047C16.1088 17.3047 18.1863 15.2272 18.1863 12.6647C18.1863 10.1021 16.1088 8.02466 13.5463 8.02466C10.9836 8.02466 8.90625 10.1021 8.90625 12.6647C8.90625 15.2272 10.9836 17.3047 13.5463 17.3047Z" fill="#4B76F4" stroke="white" stroke-width="2.20894" stroke-linecap="round" stroke-linejoin="round"/>
</svg>
