<svg width="17" height="18" viewBox="0 0 17 18" fill="none" xmlns="http://www.w3.org/2000/svg">
<path fill-rule="evenodd" clip-rule="evenodd" d="M8.15767 17.1879C10.3212 17.1879 12.3962 16.3284 13.926 14.7986C15.4559 13.2687 16.3153 11.1938 16.3153 9.03023C16.3153 6.86668 15.4559 4.79175 13.926 3.26189C12.3962 1.73203 10.3212 0.872559 8.15767 0.872559C5.99412 0.872559 3.91919 1.73203 2.38933 3.26189C0.859466 4.79175 0 6.86668 0 9.03023C0 11.1938 0.859466 13.2687 2.38933 14.7986C3.91919 16.3284 5.99412 17.1879 8.15767 17.1879ZM8.88604 6.11678C8.88604 5.9236 8.8093 5.73834 8.6727 5.60175C8.53611 5.46515 8.35085 5.38841 8.15767 5.38841C7.9645 5.38841 7.77924 5.46515 7.64264 5.60175C7.50605 5.73834 7.42931 5.9236 7.42931 6.11678V9.03023C7.42931 9.20038 7.48874 9.36586 7.59829 9.49638L10.5117 12.9925C10.5721 13.0686 10.6471 13.1319 10.7323 13.1785C10.8174 13.2252 10.9111 13.2544 11.0077 13.2643C11.1043 13.2743 11.2019 13.2648 11.2948 13.2365C11.3877 13.2082 11.474 13.1615 11.5486 13.0994C11.6232 13.0372 11.6846 12.9607 11.7293 12.8744C11.7739 12.7882 11.8008 12.6939 11.8084 12.597C11.8161 12.5002 11.8043 12.4028 11.7737 12.3107C11.7431 12.2185 11.6945 12.1333 11.6305 12.0602L8.88604 8.76686V6.11678Z" fill="#434343"/>
</svg>
