<svg width="12" height="12" viewBox="0 0 12 12" fill="none" xmlns="http://www.w3.org/2000/svg">
<path d="M1.78948 1.6875C1.58009 1.6875 1.37929 1.77068 1.23123 1.91873C1.08318 2.06679 1 2.26759 1 2.47698V9.97702C1 10.1864 1.08318 10.3872 1.23123 10.5353C1.37929 10.6833 1.58009 10.7665 1.78948 10.7665H10.4737C10.6831 10.7665 10.8839 10.6833 11.032 10.5353C11.18 10.3872 11.2632 10.1864 11.2632 9.97702V2.47698C11.2632 2.26759 11.18 2.06679 11.032 1.91873C10.8839 1.77068 10.6831 1.6875 10.4737 1.6875H8.89477" stroke="#434343" stroke-width="0.744852" stroke-linecap="round" stroke-linejoin="round"/>
<path d="M1 4.45117H11.2632" stroke="#434343" stroke-width="0.744852" stroke-linecap="round" stroke-linejoin="round"/>
<path d="M3.36816 0.503906V2.87234" stroke="#434343" stroke-width="0.744852" stroke-linecap="round" stroke-linejoin="round"/>
<path d="M8.89551 0.503906V2.87234" stroke="#434343" stroke-width="0.744852" stroke-linecap="round" stroke-linejoin="round"/>
<path d="M3.36816 1.6875H7.31555" stroke="#434343" stroke-width="0.744852" stroke-linecap="round" stroke-linejoin="round"/>
</svg>
