<svg width="24" height="24" viewBox="0 0 24 24" fill="none" xmlns="http://www.w3.org/2000/svg">
<path d="M11.6313 13.5789C8.26287 14.421 8.12252 19.5438 8.4734 21.9999H14.7891C15.14 18.842 14.9997 12.7368 11.6313 13.5789Z" fill="#D1DDFF"/>
<path d="M8.1227 22.2604H5.78354C3.19978 22.2604 1.10522 20.1658 1.10522 17.5821V10.2226C1.10522 8.58671 1.95973 7.06963 3.35876 6.22173L9.20666 2.67755C10.6971 1.77431 12.5658 1.77431 14.0562 2.67755L19.9041 6.22173C21.3032 7.06963 22.1577 8.58671 22.1577 10.2226V17.5821C22.1577 20.1658 20.0631 22.2604 17.4793 22.2604H15.1402M8.1227 22.2604V17.5821C8.1227 15.6442 9.69356 14.0734 11.6314 14.0734C13.5693 14.0734 15.1402 15.6442 15.1402 17.5821V22.2604M8.1227 22.2604H15.1402" stroke="#4B76F4" stroke-width="2.10524" stroke-linecap="round" stroke-linejoin="round"/>
</svg>
