<svg width="25" height="25" viewBox="0 0 25 25" fill="none" xmlns="http://www.w3.org/2000/svg">
<path d="M3.30168 3.9895C2.85285 3.9895 2.42241 4.1678 2.10504 4.48516C1.78767 4.80254 1.60938 5.23298 1.60938 5.68181V21.7587C1.60938 22.2075 1.78767 22.6381 2.10504 22.9554C2.42241 23.2727 2.85285 23.451 3.30168 23.451H21.9171C22.3659 23.451 22.7964 23.2727 23.1137 22.9554C23.431 22.6381 23.6094 22.2075 23.6094 21.7587V5.68181C23.6094 5.23298 23.431 4.80254 23.1137 4.48516C22.7964 4.1678 22.3659 3.9895 21.9171 3.9895H18.5325" stroke="#4B76F4" stroke-width="2" stroke-linecap="round" stroke-linejoin="round"/>
<path d="M1.60938 9.91257H23.6094" stroke="#4B76F4" stroke-width="2" stroke-linecap="round" stroke-linejoin="round"/>
<path d="M6.6875 1.45105V6.52797" stroke="#4B76F4" stroke-width="2" stroke-linecap="round" stroke-linejoin="round"/>
<path d="M18.5312 1.45105V6.52797" stroke="#4B76F4" stroke-width="2" stroke-linecap="round" stroke-linejoin="round"/>
<path d="M6.6875 3.9895H15.149" stroke="#4B76F4" stroke-width="2" stroke-linecap="round" stroke-linejoin="round"/>
</svg>
