<svg width="28" height="28" viewBox="0 0 28 28" fill="none" xmlns="http://www.w3.org/2000/svg">
<path d="M19.9453 14.8563C20.2904 14.8563 20.5703 14.5764 20.5703 14.2313C20.5703 13.8862 20.2904 13.6063 19.9453 13.6063C19.6002 13.6063 19.3203 13.8862 19.3203 14.2313C19.3203 14.5764 19.6002 14.8563 19.9453 14.8563Z" fill="white" stroke="white" stroke-width="2.2" stroke-linecap="round" stroke-linejoin="round"/>
<path d="M13.6953 14.8563C14.0404 14.8563 14.3203 14.5764 14.3203 14.2313C14.3203 13.8862 14.0404 13.6063 13.6953 13.6063C13.3502 13.6063 13.0703 13.8862 13.0703 14.2313C13.0703 14.5764 13.3502 14.8563 13.6953 14.8563Z" fill="white" stroke="white" stroke-width="2.2" stroke-linecap="round" stroke-linejoin="round"/>
<path d="M7.44531 14.8563C7.79049 14.8563 8.07031 14.5764 8.07031 14.2313C8.07031 13.8862 7.79049 13.6063 7.44531 13.6063C7.10014 13.6063 6.82031 13.8862 6.82031 14.2313C6.82031 14.5764 7.10014 14.8563 7.44531 14.8563Z" fill="white" stroke="white" stroke-width="2.2" stroke-linecap="round" stroke-linejoin="round"/>
<path d="M13.6953 26.7313C20.5988 26.7313 26.1953 21.1348 26.1953 14.2313C26.1953 7.32776 20.5988 1.73132 13.6953 1.73132C6.79175 1.73132 1.19531 7.32776 1.19531 14.2313C1.19531 16.5081 1.80403 18.6427 2.86759 20.4813L1.82031 26.1063L7.44531 25.0591C9.2839 26.1226 11.4186 26.7313 13.6953 26.7313Z" stroke="white" stroke-width="2.2" stroke-linecap="round" stroke-linejoin="round"/>
</svg>
