<svg width="24" height="23" viewBox="0 0 24 23" fill="none" xmlns="http://www.w3.org/2000/svg">
<path d="M11.6313 13.173C8.26287 14.0151 8.12252 19.1379 8.4734 21.594H14.7891C15.14 18.4361 14.9997 12.3309 11.6313 13.173Z" fill="white"/>
<path d="M8.1227 21.8545H5.78354C3.19978 21.8545 1.10522 19.7599 1.10522 17.1762V9.81675C1.10522 8.18083 1.95973 6.66374 3.35876 5.81585L9.20666 2.27167C10.6971 1.36843 12.5658 1.36843 14.0562 2.27167L19.9041 5.81585C21.3032 6.66374 22.1577 8.18083 22.1577 9.81675V17.1762C22.1577 19.7599 20.0631 21.8545 17.4793 21.8545H15.1402M8.1227 21.8545V17.1762C8.1227 15.2383 9.69356 13.6675 11.6314 13.6675C13.5693 13.6675 15.1402 15.2383 15.1402 17.1762V21.8545M8.1227 21.8545H15.1402H8.1227Z" fill="#4B76F4"/>
<path d="M8.1227 21.8545H5.78354C3.19978 21.8545 1.10522 19.7599 1.10522 17.1762V9.81675C1.10522 8.18083 1.95973 6.66374 3.35876 5.81585L9.20666 2.27167C10.6971 1.36843 12.5658 1.36843 14.0562 2.27167L19.9041 5.81585C21.3032 6.66374 22.1577 8.18083 22.1577 9.81675V17.1762C22.1577 19.7599 20.0631 21.8545 17.4793 21.8545H15.1402M8.1227 21.8545V17.1762C8.1227 15.2383 9.69356 13.6675 11.6314 13.6675C13.5693 13.6675 15.1402 15.2383 15.1402 17.1762V21.8545M8.1227 21.8545H15.1402" stroke="#4B76F4" stroke-width="2.10524" stroke-linecap="round" stroke-linejoin="round"/>
</svg>
