<svg width="24" height="25" viewBox="0 0 24 25" fill="none" xmlns="http://www.w3.org/2000/svg">
<path d="M11.6315 23.0526C17.445 23.0526 22.1579 18.3398 22.1579 12.5263C22.1579 6.71279 17.445 2 11.6315 2C5.81801 2 1.10522 6.71279 1.10522 12.5263C1.10522 14.4436 1.61782 16.2412 2.51346 17.7895L1.63154 22.5263L6.36838 21.6444C7.91667 22.54 9.71428 23.0526 11.6315 23.0526Z" fill="#4B76F4" stroke="#4B76F4" stroke-width="2.10526" stroke-linecap="round" stroke-linejoin="round"/>
<path d="M16.8945 13.0526C17.1851 13.0526 17.4208 12.8169 17.4208 12.5263C17.4208 12.2357 17.1851 12 16.8945 12C16.6038 12 16.3682 12.2357 16.3682 12.5263C16.3682 12.8169 16.6038 13.0526 16.8945 13.0526Z" fill="white" stroke="white" stroke-width="2.10526" stroke-linecap="round" stroke-linejoin="round"/>
<path d="M11.6315 13.0526C11.9222 13.0526 12.1579 12.8169 12.1579 12.5263C12.1579 12.2357 11.9222 12 11.6315 12C11.3409 12 11.1052 12.2357 11.1052 12.5263C11.1052 12.8169 11.3409 13.0526 11.6315 13.0526Z" fill="white" stroke="white" stroke-width="2.10526" stroke-linecap="round" stroke-linejoin="round"/>
<path d="M6.36836 13.0526C6.65903 13.0526 6.89467 12.8169 6.89467 12.5263C6.89467 12.2357 6.65903 12 6.36836 12C6.07768 12 5.84204 12.2357 5.84204 12.5263C5.84204 12.8169 6.07768 13.0526 6.36836 13.0526Z" fill="white" stroke="white" stroke-width="2.10526" stroke-linecap="round" stroke-linejoin="round"/>
</svg>
