<svg width="25" height="25" viewBox="0 0 25 25" fill="none" xmlns="http://www.w3.org/2000/svg">
<path d="M12.1053 0C5.47788 0 0.105469 5.37895 0.105469 12.0144C0.105469 12.199 0.110087 12.382 0.118553 12.5646V24.0288L11.7066 24.0215C11.839 24.0257 11.9721 24.0288 12.1057 24.0288C18.7331 24.0288 24.1055 18.6498 24.1055 12.0144C24.1055 5.37895 18.7327 0 12.1053 0Z" fill="#4B76F4"/>
<path opacity="0.7" d="M7.45743 15.1603C7.10107 15.1603 6.81128 14.8709 6.81128 14.5153C6.81128 14.3365 6.88478 14.1654 7.01332 14.0448C7.58712 13.5073 7.90308 12.7783 7.90308 11.9919C7.90308 11.2055 7.58712 10.4769 7.01332 9.93896C6.88478 9.81875 6.81128 9.64728 6.81128 9.4685C6.81128 9.11285 7.10107 8.82349 7.45743 8.82349C7.61984 8.82349 7.77531 8.88552 7.89577 8.99842C8.72049 9.77251 9.19385 10.8633 9.19385 11.9915C9.19385 13.1197 8.72087 14.2109 7.89577 14.9846C7.77531 15.0975 7.61984 15.1603 7.45743 15.1603Z" fill="white"/>
<path opacity="0.7" d="M16.7293 15.1603C17.0857 15.1603 17.3755 14.8709 17.3755 14.5153C17.3755 14.3365 17.302 14.1654 17.1734 14.0448C16.5996 13.5073 16.2837 12.7783 16.2837 11.9919C16.2837 11.2055 16.5996 10.4769 17.1734 9.93896C17.302 9.81875 17.3755 9.64728 17.3755 9.4685C17.3755 9.11285 17.0857 8.82349 16.7293 8.82349C16.5669 8.82349 16.4115 8.88552 16.291 8.99842C15.4663 9.77251 14.9929 10.8633 14.9929 11.9915C14.9929 13.1197 15.4659 14.2109 16.291 14.9846C16.4115 15.0975 16.5669 15.1603 16.7293 15.1603Z" fill="white"/>
<rect x="10.3184" y="11.1315" width="3.52935" height="1.41174" rx="0.705871" fill="white"/>
<path d="M0.105469 23.9997V14.4705L9.63473 23.9997H0.105469Z" fill="#7596FA"/>
<path d="M0.105469 23.9996V18.3527L5.75244 23.9996H0.105469Z" fill="#D1DDFF"/>
</svg>
