<svg width="200" height="15" viewBox="0 0 200 15" fill="none" xmlns="http://www.w3.org/2000/svg">
<path d="M13.4473 9.50781H5.76172V13.9902H0.644531V0.865234H5.76172V5.34766H13.4473V0.865234H18.5742V13.9902H13.4473V9.50781ZM21.5625 14.0098V0.884766H36.9238V4.24414H26.6797V5.92383H36.9238V8.96094H26.6797V10.6406H36.9238V14.0098H21.5625ZM47.4121 4.68359L45.6055 8.56055H49.209L47.4121 4.68359ZM37.3242 14.0098L44.3652 0.884766H50.4492L57.4902 14.0098H51.7285L50.6934 11.7637H44.1211L43.0859 14.0098H37.3242ZM57.8906 0.865234H63.0078V9.83008H73.252V13.9902H57.8906V0.865234ZM81.0645 14.0098H75.9473V5.04492H69.8633V0.884766H87.1484V5.04492H81.0645V14.0098ZM101.67 9.50781H93.9844V13.9902H88.8672V0.865234H93.9844V5.34766H101.67V0.865234H106.797V13.9902H101.67V9.50781ZM125.879 9.0293V6.7832H134.795V14.3125H132.236L131.982 12.2715C130.459 13.7754 128.145 14.3125 125.918 14.3125C120.977 14.293 116.934 12.8672 116.953 7.90625V6.94922C116.934 1.97852 120.977 0.552734 125.918 0.542969C130.469 0.542969 134.219 1.7832 134.795 5.82617H129.355C129.033 5.38672 128.564 5.09375 127.959 4.9375C127.354 4.78125 126.67 4.70312 125.918 4.70312C123.818 4.73242 122.041 5.12305 122.07 7.26172V7.58398C122.041 9.74219 123.818 10.1133 125.918 10.1426C127.939 10.1426 129.229 10.0254 130 9.0293H125.879ZM137.148 14.0098V0.884766H152.51V4.24414H142.266V5.92383H152.51V8.96094H142.266V10.6406H152.51V14.0098H137.148ZM168.037 7.81836V0.865234H173.164V13.9902H167.402L160.352 5.97266V13.9902H155.234V0.865234H162.275L168.037 7.81836ZM176.152 0.865234H181.27V13.9902H176.152V0.865234ZM183.984 14.0098V0.884766H199.346V4.24414H189.102V5.92383H199.346V8.96094H189.102V10.6406H199.346V14.0098H183.984Z" fill="#4B76F4"/>
</svg>
