<svg width="209" height="16" viewBox="0 0 209 16" fill="none" xmlns="http://www.w3.org/2000/svg">
<path d="M13.6479 10.2832H5.57812V14.9897H0.205078V1.2085H5.57812V5.91504H13.6479V1.2085H19.0312V14.9897H13.6479V10.2832ZM22.1689 15.0103V1.229H38.2983V4.75635H27.542V6.52002H38.2983V9.70898H27.542V11.4727H38.2983V15.0103H22.1689ZM49.311 5.21777L47.4141 9.28857H51.1978L49.311 5.21777ZM38.7188 15.0103L46.1118 1.229H52.5L59.8931 15.0103H53.8433L52.7563 12.6519H45.8555L44.7686 15.0103H38.7188ZM60.3135 1.2085H65.6865V10.6216H76.4429V14.9897H60.3135V1.2085ZM84.646 15.0103H79.2729V5.59717H72.8848V1.229H91.0342V5.59717H84.646V15.0103ZM106.282 10.2832H98.2119V14.9897H92.8389V1.2085H98.2119V5.91504H106.282V1.2085H111.665V14.9897H106.282V10.2832ZM131.701 9.78076V7.42236H141.063V15.3281H138.376L138.11 13.1851C136.51 14.7642 134.08 15.3281 131.742 15.3281C126.554 15.3076 122.309 13.8105 122.329 8.60156V7.59668C122.309 2.37744 126.554 0.880371 131.742 0.870117C136.521 0.870117 140.458 2.17236 141.063 6.41748H135.352C135.013 5.95605 134.521 5.64844 133.885 5.48438C133.25 5.32031 132.532 5.23828 131.742 5.23828C129.538 5.26904 127.671 5.6792 127.702 7.9248V8.26318C127.671 10.5293 129.538 10.9189 131.742 10.9497C133.865 10.9497 135.218 10.8267 136.028 9.78076H131.701ZM143.534 15.0103V1.229H159.664V4.75635H148.907V6.52002H159.664V9.70898H148.907V11.4727H159.664V15.0103H143.534ZM175.967 8.50928V1.2085H181.351V14.9897H175.301L167.897 6.57129V14.9897H162.524V1.2085H169.917L175.967 8.50928ZM184.488 1.2085H189.861V14.9897H184.488V1.2085ZM192.712 15.0103V1.229H208.841V4.75635H198.085V6.52002H208.841V9.70898H198.085V11.4727H208.841V15.0103H192.712Z" fill="white"/>
</svg>
