<svg width="225" height="17" viewBox="0 0 225 17" fill="none" xmlns="http://www.w3.org/2000/svg">
<path d="M14.7556 11.1064H6.07627V16.1684H0.297403V1.34629H6.07627V6.40831H14.7556V1.34629H20.5455V16.1684H14.7556V11.1064ZM23.9202 16.1905V1.36835H41.2678V5.16211H29.699V7.05898H41.2678V10.4888H29.699V12.3857H41.2678V16.1905H23.9202ZM53.1123 5.65838L51.072 10.0366H55.1415L53.1123 5.65838ZM41.7199 16.1905L49.6714 1.36835H56.5421L64.4935 16.1905H57.9868L56.8178 13.6539H49.3957L48.2267 16.1905H41.7199ZM64.9457 1.34629H70.7246V11.4703H82.2933V16.1684H64.9457V1.34629ZM91.116 16.1905H85.3371V6.06643H78.4665V1.36835H97.9867V6.06643H91.116V16.1905ZM114.386 11.1064H105.707V16.1684H99.9277V1.34629H105.707V6.40831H114.386V1.34629H120.176V16.1684H114.386V11.1064ZM141.725 10.566V8.02948H151.794V16.5324H148.905L148.618 14.2274C146.897 15.9258 144.284 16.5324 141.769 16.5324C136.189 16.5103 131.623 14.9002 131.645 9.29774V8.21696C131.623 2.60352 136.189 0.993383 141.769 0.982355C146.909 0.982355 151.143 2.38296 151.794 6.9487H145.651C145.287 6.45242 144.758 6.12157 144.074 5.94512C143.39 5.76867 142.618 5.68044 141.769 5.68044C139.398 5.71352 137.391 6.15466 137.424 8.56987V8.93381C137.391 11.3711 139.398 11.7902 141.769 11.8232C144.052 11.8232 145.508 11.6909 146.379 10.566H141.725ZM154.452 16.1905V1.36835H171.8V5.16211H160.231V7.05898H171.8V10.4888H160.231V12.3857H171.8V16.1905H154.452ZM189.335 9.19849V1.34629H195.125V16.1684H188.618L180.655 7.11413V16.1684H174.876V1.34629H182.828L189.335 9.19849ZM198.499 1.34629H204.278V16.1684H198.499V1.34629ZM207.344 16.1905V1.36835H224.692V5.16211H213.123V7.05898H224.692V10.4888H213.123V12.3857H224.692V16.1905H207.344Z" fill="#4B76F4"/>
</svg>
