<svg width="24" height="21" viewBox="0 0 24 21" fill="none" xmlns="http://www.w3.org/2000/svg">
<path fill-rule="evenodd" clip-rule="evenodd" d="M12.2431 0.294153C12.3699 0.400522 12.4744 0.53082 12.5508 0.677603C12.6271 0.824385 12.6738 0.984775 12.6881 1.14961C12.7025 1.31444 12.6842 1.48048 12.6344 1.63825C12.5845 1.79602 12.5041 1.94242 12.3976 2.06908C11.8351 2.73741 11.6957 3.4007 11.7696 4.16306C11.8536 5.00434 12.1877 5.90608 12.6092 7.00932L12.6377 7.08489C13.024 8.09577 13.4841 9.29809 13.6033 10.5105C13.7326 11.8303 13.4639 13.2006 12.3976 14.4701C12.2924 14.6004 12.1623 14.7084 12.0148 14.7877C11.8673 14.8671 11.7055 14.9163 11.5388 14.9324C11.3721 14.9485 11.2039 14.9312 11.044 14.8814C10.884 14.8317 10.7356 14.7506 10.6074 14.6429C10.4792 14.5351 10.3738 14.4029 10.2973 14.2539C10.2209 14.1049 10.1749 13.9421 10.1621 13.7751C10.1493 13.6081 10.1699 13.4403 10.2228 13.2814C10.2756 13.1225 10.3596 12.9757 10.4699 12.8496C11.0307 12.1813 11.1718 11.5163 11.0962 10.754C11.014 9.91436 10.6781 9.01262 10.2566 7.90938L10.2281 7.83381C9.84186 6.82125 9.38176 5.62061 9.26253 4.40822C9.13323 3.08668 9.40191 1.71645 10.4699 0.446961C10.6851 0.192003 10.9928 0.0328879 11.3252 0.00455246C11.6577 -0.0237829 11.9878 0.0809779 12.2431 0.295832V0.294153ZM7.52623 3.61899C7.74133 3.36336 7.84608 3.03274 7.81742 2.69988C7.78877 2.36702 7.62905 2.05917 7.37342 1.84407C7.11779 1.62896 6.78717 1.52421 6.45431 1.55287C6.12145 1.58153 5.8136 1.74124 5.59849 1.99687C4.60272 3.18072 4.23833 4.34945 4.39786 5.52154C4.53555 6.53243 5.06115 7.40729 5.43729 8.03196L5.48263 8.10753C5.91922 8.83462 6.1711 9.28801 6.23156 9.73636C6.27522 10.0672 6.23156 10.5441 5.59849 11.298C5.38339 11.5537 5.27864 11.8843 5.3073 12.2171C5.33595 12.55 5.49567 12.8578 5.7513 13.073C6.00693 13.2881 6.33755 13.3928 6.67041 13.3642C7.00328 13.3355 7.31112 13.1758 7.52623 12.9201C8.522 11.7363 8.88639 10.5693 8.72686 9.39716C8.58917 8.3846 8.06358 7.51141 7.68743 6.88674L7.64209 6.81117C7.2055 6.08408 6.95362 5.63069 6.89317 5.18234C6.84783 4.85153 6.89317 4.37296 7.52623 3.61899ZM21.6484 9.37869C21.4028 9.16357 21.0832 9.05225 20.7571 9.06819C20.431 9.08414 20.1238 9.2261 19.9004 9.46415C19.6769 9.7022 19.5547 10.0177 19.5593 10.3442C19.564 10.6707 19.6953 10.9825 19.9255 11.2141C20.4848 11.741 20.8379 12.4501 20.9213 13.214C20.8944 14.0603 20.2177 15.1031 18.5234 16.0116C16.8459 16.91 14.4429 17.5061 11.7209 17.5061C8.99722 17.5061 6.59427 16.9133 4.91673 16.0183C3.22073 15.1132 2.54569 14.0738 2.5205 13.2274C2.59933 12.458 2.95357 11.743 3.51795 11.2141C3.75493 10.9839 3.89196 10.6697 3.8995 10.3394C3.90703 10.0091 3.78447 9.6891 3.55823 9.44832C3.33199 9.20755 3.0202 9.06531 2.69007 9.05229C2.35993 9.03926 2.0379 9.15649 1.7934 9.37869C0.762956 10.3481 0.126209 11.6634 0.00503764 13.073C0.00192243 13.1076 0.000241779 13.1423 0 13.1771C0 15.4138 1.67417 17.1434 3.73121 18.2416C5.8403 19.3666 8.66809 20.0232 11.7209 20.0232C14.7771 20.0232 17.6032 19.3616 19.7139 18.2315C21.7693 17.1299 23.4418 15.3953 23.4418 13.162C23.3434 11.7199 22.7034 10.3685 21.6501 9.37869H21.6484ZM17.6401 3.46283C17.8071 3.17782 17.8555 2.8386 17.7748 2.51828C17.694 2.19795 17.4907 1.92217 17.2085 1.75037C16.9264 1.57857 16.588 1.52451 16.2664 1.59983C15.9447 1.67515 15.6656 1.87383 15.4891 2.15304C14.7687 3.33856 14.5453 4.43173 14.6494 5.47452C14.7418 6.42496 15.1045 7.25952 15.3833 7.90098L15.4101 7.96144C15.7174 8.66838 15.9223 9.16711 15.9743 9.68934C16.0197 10.1478 15.9475 10.7019 15.4874 11.4559C15.4015 11.5972 15.3443 11.7541 15.319 11.9176C15.2938 12.081 15.3009 12.2479 15.3401 12.4086C15.3794 12.5692 15.4498 12.7206 15.5476 12.8541C15.6453 12.9875 15.7683 13.1004 15.9097 13.1863C16.051 13.2722 16.2079 13.3294 16.3714 13.3547C16.5349 13.3799 16.7017 13.3727 16.8624 13.3335C17.0231 13.2943 17.1744 13.2238 17.3079 13.1261C17.4413 13.0284 17.5542 12.9053 17.6401 12.764C18.3605 11.5801 18.5822 10.487 18.4797 9.44418C18.3874 8.49374 18.0247 7.6575 17.7459 7.01772L17.719 6.95727C17.4117 6.24864 17.2069 5.74991 17.1548 5.22768C17.1095 4.76925 17.1817 4.21679 17.6418 3.46283H17.6401Z" fill="white"/>
</svg>
