<svg width="21" height="20" viewBox="0 0 21 20" fill="none" xmlns="http://www.w3.org/2000/svg">
<path fill-rule="evenodd" clip-rule="evenodd" d="M3.21607 8.57143C3.21607 7.05591 3.82683 5.60246 4.914 4.53082C6.00117 3.45918 7.47568 2.85714 9.01317 2.85714C10.5507 2.85714 12.0252 3.45918 13.1123 4.53082C14.1995 5.60246 14.8103 7.05591 14.8103 8.57143C14.8103 10.087 14.1995 11.5404 13.1123 12.612C12.0252 13.6837 10.5507 14.2857 9.01317 14.2857C7.47568 14.2857 6.00117 13.6837 4.914 12.612C3.82683 11.5404 3.21607 10.087 3.21607 8.57143ZM9.01317 1.62088e-07C7.64462 -0.000171985 6.29536 0.318061 5.07511 0.928816C3.85487 1.53957 2.79809 2.4256 1.99074 3.51485C1.18339 4.6041 0.648259 5.8658 0.428869 7.19735C0.209479 8.5289 0.312026 9.89269 0.728169 11.1778C1.14431 12.4629 1.8623 13.6331 2.82374 14.5931C3.78518 15.5531 4.96293 16.2759 6.26119 16.7027C7.55945 17.1294 8.94156 17.2481 10.2951 17.049C11.6487 16.85 12.9355 16.3388 14.0509 15.5571L18.1335 19.5814C18.4068 19.8417 18.7729 19.9856 19.1529 19.9824C19.5329 19.9791 19.8964 19.8289 20.1651 19.564C20.4338 19.2992 20.5862 18.9409 20.5895 18.5663C20.5928 18.1917 20.4467 17.8309 20.1827 17.5614L16.1016 13.5386C17.0266 12.2562 17.5757 10.7476 17.6887 9.17811C17.8017 7.60858 17.4742 6.03867 16.7421 4.64043C16.01 3.24218 14.9016 2.06955 13.5383 1.25103C12.175 0.432515 10.6095 -0.000305787 9.01317 1.62088e-07Z" fill="#949494"/>
</svg>
