<svg width="78" height="78" viewBox="0 0 78 78" fill="none" xmlns="http://www.w3.org/2000/svg">
<path d="M38.5058 0C17.2394 0 0 17.2603 0 38.5526C0 39.1449 0.014819 39.7322 0.041987 40.3182V77.1053L37.2265 77.0818C37.6513 77.0954 38.0785 77.1053 38.5071 77.1053C59.7735 77.1053 77.0129 59.8449 77.0129 38.5526C77.0129 17.2603 59.7723 0 38.5058 0Z" fill="#4B76F4"/>
<path opacity="0.7" d="M23.5929 48.6471C22.4494 48.6471 21.5195 47.7185 21.5195 46.5773C21.5195 46.0036 21.7554 45.4546 22.1679 45.0676C24.0091 43.3428 25.023 41.0035 25.023 38.48C25.023 35.9565 24.0091 33.6184 22.1679 31.8924C21.7554 31.5066 21.5195 30.9564 21.5195 30.3827C21.5195 29.2415 22.4494 28.313 23.5929 28.313C24.1141 28.313 24.613 28.5121 24.9995 28.8743C27.6459 31.3583 29.1649 34.8586 29.1649 38.4788C29.1649 42.099 27.6472 45.6005 24.9995 48.0833C24.613 48.4455 24.1141 48.6446 23.5929 48.6446V48.6471Z" fill="white"/>
<path opacity="0.7" d="M53.3454 48.6471C54.4889 48.6471 55.4188 47.7185 55.4188 46.5773C55.4188 46.0036 55.1829 45.4546 54.7705 45.0676C52.9292 43.3428 51.9153 41.0035 51.9153 38.48C51.9153 35.9565 52.9292 33.6184 54.7705 31.8924C55.1829 31.5066 55.4188 30.9564 55.4188 30.3827C55.4188 29.2415 54.4889 28.313 53.3454 28.313C52.8242 28.313 52.3253 28.5121 51.9388 28.8743C49.2924 31.3583 47.7734 34.8586 47.7734 38.4788C47.7734 42.099 49.2911 45.6005 51.9388 48.0833C52.3253 48.4455 52.8242 48.6446 53.3454 48.6446V48.6471Z" fill="white"/>
<rect x="32.7695" y="35.7197" width="11.3252" height="4.5301" rx="2.26505" fill="white" fill-opacity="0.7"/>
<path d="M0 77.0117V46.4336L30.5782 77.0117H0Z" fill="#7596FA"/>
<path d="M0 77.0115V58.8911L18.1204 77.0115H0Z" fill="#A6BCFF"/>
</svg>
