<svg width="78" height="79" viewBox="0 0 78 79" fill="none" xmlns="http://www.w3.org/2000/svg">
<g opacity="0.5">
<path d="M39.0006 0C17.4609 0 0 17.4821 0 39.048C0 39.6478 0.0150094 40.2427 0.0425265 40.8363V78.096L37.7048 78.0722C38.135 78.0859 38.5678 78.096 39.0018 78.096C60.5415 78.096 78.0024 60.6138 78.0024 39.048C78.0024 17.4821 60.5403 0 39.0006 0Z" fill="#C1C1C1"/>
<path opacity="0.7" d="M23.8969 49.2726C22.7387 49.2726 21.7969 48.3321 21.7969 47.1762C21.7969 46.5952 22.0358 46.0391 22.4535 45.6472C24.3184 43.9002 25.3453 41.5309 25.3453 38.9749C25.3453 36.419 24.3184 34.0509 22.4535 32.3027C22.0358 31.9119 21.7969 31.3547 21.7969 30.7736C21.7969 29.6177 22.7387 28.6772 23.8969 28.6772C24.4248 28.6772 24.9301 28.8789 25.3216 29.2458C28.002 31.7617 29.5405 35.3069 29.5405 38.9737C29.5405 42.6404 28.0032 46.1869 25.3216 48.7015C24.9301 49.0685 24.4248 49.2701 23.8969 49.2701V49.2726Z" fill="white"/>
<path opacity="0.7" d="M54.0302 49.2726C55.1885 49.2726 56.1303 48.3321 56.1303 47.1762C56.1303 46.5952 55.8914 46.0391 55.4736 45.6472C53.6087 43.9002 52.5818 41.5309 52.5818 38.9749C52.5818 36.419 53.6087 34.0509 55.4736 32.3027C55.8914 31.9119 56.1303 31.3547 56.1303 30.7736C56.1303 29.6177 55.1885 28.6772 54.0302 28.6772C53.5024 28.6772 52.9971 28.8789 52.6056 29.2458C49.9252 31.7617 48.3867 35.3069 48.3867 38.9737C48.3867 42.6404 49.9239 46.1869 52.6056 48.7015C52.9971 49.0685 53.5024 49.2701 54.0302 49.2701V49.2726Z" fill="white"/>
<rect x="33.1914" y="36.1782" width="11.4708" height="4.5883" rx="2.29415" fill="white" fill-opacity="0.7"/>
<path d="M0 78.0013V47.0303L30.971 78.0013H0Z" fill="#D9D9D9"/>
<path d="M0 78.0012V59.6479L18.3532 78.0012H0Z" fill="#F3F3F3"/>
</g>
</svg>
