<svg width="17" height="17" viewBox="0 0 17 17" fill="none" xmlns="http://www.w3.org/2000/svg">
<path fill-rule="evenodd" clip-rule="evenodd" d="M5.48979 0.167687C5.37687 0.0600472 5.22686 0 5.07086 0C4.91486 0 4.76484 0.0600472 4.65193 0.167687L0.188214 4.41769C0.128721 4.4744 0.0813635 4.5426 0.0490108 4.61816C0.0166581 4.69372 -1.56565e-05 4.77506 1.10312e-08 4.85726V16.393C1.10312e-08 16.554 0.0639667 16.7084 0.177828 16.8223C0.291689 16.9361 0.446119 17.0001 0.607143 17.0001H3.85657V14.5715C3.85657 14.4121 3.88798 14.2542 3.949 14.1069C4.01003 13.9595 4.09947 13.8257 4.21223 13.7129C4.32498 13.6002 4.45885 13.5107 4.60617 13.4497C4.75349 13.3887 4.9114 13.3573 5.07086 13.3573C5.23032 13.3573 5.38822 13.3887 5.53554 13.4497C5.68287 13.5107 5.81673 13.6002 5.92949 13.7129C6.04224 13.8257 6.13169 13.9595 6.19271 14.1069C6.25373 14.2542 6.28514 14.4121 6.28514 14.5715V17.0001H9.53579C9.69681 17.0001 9.85124 16.9361 9.9651 16.8223C10.079 16.7084 10.1429 16.554 10.1429 16.393V4.85726C10.1428 4.77498 10.1259 4.69358 10.0934 4.61802C10.0608 4.54245 10.0132 4.4743 9.9535 4.41769L5.48979 0.167687ZM11.8636 7.89297C11.8636 7.73195 11.9275 7.57752 12.0414 7.46366C12.1553 7.3498 12.3097 7.28583 12.4707 7.28583H16.3929C16.5539 7.28583 16.7083 7.3498 16.8222 7.46366C16.936 7.57752 17 7.73195 17 7.89297V16.393C17 16.554 16.936 16.7084 16.8222 16.8223C16.7083 16.9361 16.5539 17.0001 16.3929 17.0001H12.4695C12.3085 17.0001 12.154 16.9361 12.0402 16.8223C11.9263 16.7084 11.8624 16.554 11.8624 16.393V7.89297H11.8636ZM2.63864 9.42661C2.63864 9.00769 2.97864 8.66769 3.39757 8.66769H6.74536C6.94664 8.66769 7.13967 8.74765 7.282 8.88997C7.42433 9.0323 7.50429 9.22533 7.50429 9.42661C7.50429 9.6279 7.42433 9.82093 7.282 9.96326C7.13967 10.1056 6.94664 10.1855 6.74536 10.1855H3.39757C3.19629 10.1855 3.00325 10.1056 2.86093 9.96326C2.7186 9.82093 2.63864 9.6279 2.63864 9.42661ZM3.39757 5.50204C3.29791 5.50204 3.19922 5.52167 3.10714 5.55981C3.01506 5.59795 2.9314 5.65386 2.86093 5.72433C2.79045 5.7948 2.73455 5.87847 2.69641 5.97054C2.65827 6.06262 2.63864 6.16131 2.63864 6.26097C2.63864 6.36064 2.65827 6.45932 2.69641 6.5514C2.73455 6.64348 2.79045 6.72714 2.86093 6.79762C2.9314 6.86809 3.01506 6.92399 3.10714 6.96213C3.19922 7.00027 3.29791 7.0199 3.39757 7.0199H6.74536C6.84502 7.0199 6.94371 7.00027 7.03579 6.96213C7.12786 6.92399 7.21153 6.86809 7.282 6.79762C7.35247 6.72714 7.40838 6.64348 7.44652 6.5514C7.48465 6.45932 7.50429 6.36064 7.50429 6.26097C7.50429 6.16131 7.48465 6.06262 7.44652 5.97054C7.40838 5.87847 7.35247 5.7948 7.282 5.72433C7.21153 5.65386 7.12786 5.59795 7.03579 5.55981C6.94371 5.52167 6.84502 5.50204 6.74536 5.50204H3.39757Z" fill="#434343"/>
</svg>
