<svg width="17" height="17" viewBox="0 0 17 17" fill="none" xmlns="http://www.w3.org/2000/svg">
<path fill-rule="evenodd" clip-rule="evenodd" d="M8.50118 0C8.26186 0.000105743 8.02749 0.0682005 7.82537 0.196354C7.62325 0.324508 7.46169 0.507446 7.35952 0.723865L5.43083 4.61646C5.42573 4.62565 5.42087 4.63496 5.41625 4.6444C5.4069 4.64579 5.39759 4.64741 5.38832 4.64926L1.14107 5.27839C0.900201 5.30177 0.671117 5.39386 0.481075 5.54369C0.291034 5.69353 0.148035 5.8948 0.069093 6.12356C-0.00984931 6.35233 -0.0214122 6.59896 0.0357801 6.83411C0.0929723 7.06926 0.216512 7.28303 0.391701 7.44998L3.50092 10.4487L3.50821 10.4548C3.51261 10.4589 3.5159 10.464 3.51781 10.4698C3.51972 10.4755 3.52018 10.4816 3.51914 10.4875V10.4924L2.77827 14.8259V14.8271C2.73761 15.062 2.76362 15.3037 2.85338 15.5246C2.94313 15.7455 3.09302 15.9368 3.28603 16.0769C3.47904 16.2169 3.70743 16.3 3.94529 16.3167C4.18315 16.3335 4.42094 16.2832 4.63166 16.1716L8.45746 14.1494C8.47125 14.1434 8.48614 14.1403 8.50118 14.1403C8.51623 14.1403 8.53112 14.1434 8.54491 14.1494L12.3707 16.1704C12.5813 16.2827 12.8193 16.3336 13.0574 16.3173C13.2955 16.3009 13.5243 16.218 13.7176 16.078C13.9109 15.938 14.061 15.7465 14.1508 15.5253C14.2405 15.3042 14.2664 15.0622 14.2253 14.8271L13.4844 10.4912V10.4875C13.482 10.4827 13.4832 10.4754 13.4844 10.4705C13.4863 10.4645 13.4896 10.4591 13.4942 10.4548L13.5014 10.4487L16.6095 7.44877C16.7843 7.28175 16.9075 7.06808 16.9644 6.83311C17.0214 6.59815 17.0097 6.35178 16.9308 6.12325C16.8519 5.89472 16.7091 5.69363 16.5193 5.54387C16.3295 5.39411 16.1007 5.30197 15.8601 5.27839L11.6141 4.64926C11.6048 4.64741 11.5955 4.64579 11.5861 4.6444C11.5815 4.63496 11.5766 4.62565 11.5715 4.61646L9.64285 0.723865C9.54068 0.507446 9.37912 0.324508 9.177 0.196354C8.97488 0.0682005 8.74051 0.000105743 8.50118 0Z" fill="#434343"/>
</svg>
