<svg width="59" height="60" viewBox="0 0 59 60" fill="none" xmlns="http://www.w3.org/2000/svg">
<g opacity="0.5">
<path d="M29.4995 0C13.2072 0 0 13.2232 0 29.5354C0 29.9891 0.0113529 30.439 0.0321665 30.888V59.0708L28.5194 59.0528C28.8448 59.0632 29.1722 59.0708 29.5005 59.0708C45.7928 59.0708 59 45.8475 59 29.5354C59 13.2232 45.7919 0 29.4995 0Z" fill="#4B76F4"/>
<path opacity="0.7" d="M27.203 25.7179C27.203 26.594 26.4917 27.3064 25.6174 27.3064C25.1779 27.3064 24.7573 27.1257 24.4608 26.8097C23.1395 25.3991 21.3473 24.6224 19.414 24.6224C17.4807 24.6224 15.6895 25.3991 14.3672 26.8097C14.0717 27.1257 13.6502 27.3064 13.2107 27.3064C12.3364 27.3064 11.625 26.594 11.625 25.7179C11.625 25.3187 11.7775 24.9365 12.055 24.6404C13.958 22.6129 16.6396 21.4493 19.4131 21.4493C22.1865 21.4493 24.8691 22.612 26.7711 24.6404C27.0486 24.9365 27.2011 25.3187 27.2011 25.7179H27.203Z" fill="white"/>
<path opacity="0.7" d="M31.7345 25.2689C31.7345 26.145 32.4458 26.8574 33.3201 26.8574C33.7596 26.8574 34.1802 26.6767 34.4767 26.3607C35.798 24.9501 37.5902 24.1734 39.5235 24.1734C41.4568 24.1734 43.248 24.9501 44.5703 26.3607C44.8658 26.6767 45.2873 26.8574 45.7268 26.8574C46.6011 26.8574 47.3125 26.145 47.3125 25.2689C47.3125 24.8697 47.16 24.4875 46.8825 24.1914C44.9795 22.1639 42.2979 21.0002 39.5244 21.0002C36.751 21.0002 34.0684 22.163 32.1664 24.1914C31.8889 24.4875 31.7364 24.8697 31.7364 25.2689H31.7345Z" fill="white"/>
<rect x="25" y="29.3643" width="8.67633" height="3.47053" rx="1.73527" fill="white" fill-opacity="0.7"/>
<path d="M0 58.9991V35.573L23.4261 58.9991H0Z" fill="#A6BCFF"/>
<path d="M0 58.9986V45.1165L13.8821 58.9986H0Z" fill="#D1DDFF"/>
</g>
</svg>
