<svg width="59" height="60" viewBox="0 0 59 60" fill="none" xmlns="http://www.w3.org/2000/svg">
<g opacity="0.5">
<path d="M29.4995 0C13.2072 0 0 13.2232 0 29.5354C0 29.9891 0.0113529 30.439 0.0321665 30.888V59.0708L28.5194 59.0528C28.8448 59.0632 29.1722 59.0708 29.5005 59.0708C45.7928 59.0708 59 45.8475 59 29.5354C59 13.2232 45.7919 0 29.4995 0Z" fill="#4B76F4"/>
<path opacity="0.7" d="M11.6251 23.0377C11.6251 22.1616 12.3364 21.4492 13.2107 21.4492C13.6502 21.4492 14.0708 21.6299 14.3673 21.9459C15.6887 23.3565 17.4808 24.1332 19.4141 24.1332C21.3474 24.1332 23.1386 23.3565 24.4609 21.9459C24.7564 21.6299 25.178 21.4492 25.6175 21.4492C26.4918 21.4492 27.2031 22.1616 27.2031 23.0377C27.2031 23.4369 27.0506 23.8191 26.7731 24.1153C24.8701 26.1427 22.1885 27.3064 19.4151 27.3064C16.6416 27.3064 13.959 26.1436 12.057 24.1153C11.7795 23.8191 11.627 23.4369 11.627 23.0377H11.6251Z" fill="white"/>
<path opacity="0.7" d="M47.3124 22.5887C47.3124 21.7127 46.6011 21.0003 45.7268 21.0003C45.2873 21.0003 44.8667 21.181 44.5702 21.497C43.2488 22.9076 41.4567 23.6843 39.5234 23.6843C37.5901 23.6843 35.7989 22.9076 34.4766 21.497C34.1811 21.181 33.7595 21.0003 33.32 21.0003C32.4457 21.0003 31.7344 21.7127 31.7344 22.5887C31.7344 22.988 31.8869 23.3702 32.1644 23.6663C34.0674 25.6938 36.749 26.8574 39.5224 26.8574C42.2959 26.8574 44.9785 25.6947 46.8805 23.6663C47.158 23.3702 47.3105 22.988 47.3105 22.5887H47.3124Z" fill="white"/>
<rect x="25" y="28.3643" width="8.67633" height="3.47053" rx="1.73527" fill="white" fill-opacity="0.7"/>
<path d="M0 58.9991V35.573L23.4261 58.9991H0Z" fill="#A6BCFF"/>
<path d="M0 58.9986V45.1165L13.8821 58.9986H0Z" fill="#D1DDFF"/>
</g>
</svg>
