<svg width="13" height="13" viewBox="0 0 13 13" fill="none" xmlns="http://www.w3.org/2000/svg">
<path d="M5.68895 1.04033C6.05814 0.483894 6.8752 0.483893 7.24438 1.04033L8.86378 3.48105C8.9878 3.66797 9.17499 3.80397 9.39108 3.86415L12.2128 4.65007C12.8561 4.82924 13.1085 5.60631 12.6934 6.12938L10.8726 8.42374C10.7331 8.59945 10.6616 8.8195 10.6712 9.04361L10.7957 11.9701C10.8241 12.6372 10.163 13.1175 9.5373 12.8843L6.79255 11.8616C6.58235 11.7833 6.35098 11.7833 6.14078 11.8616L3.39604 12.8843C2.7703 13.1175 2.10928 12.6372 2.13766 11.9701L2.26216 9.04361C2.2717 8.8195 2.2002 8.59945 2.06076 8.42374L0.239909 6.12938C-0.175204 5.60631 0.0772809 4.82924 0.720565 4.65007L3.54226 3.86415C3.75835 3.80397 3.94553 3.66797 4.06955 3.48105L5.68895 1.04033Z" fill="#4B76F4"/>
</svg>
