<svg width="71" height="71" viewBox="0 0 71 71" fill="none" xmlns="http://www.w3.org/2000/svg">
<path d="M56.6807 39.9966C53.2993 36.6153 49.0423 34.4409 44.4214 33.6421C47.5483 30.7992 49.5511 26.7403 49.5511 22.1904C49.5511 13.6261 42.5843 6.65918 34.0199 6.65918C25.4555 6.65918 18.4886 13.6261 18.4886 22.1904C18.4886 26.9326 20.6719 31.1335 24.0326 33.9853C20.0329 34.9763 16.3586 37.0117 13.3678 39.9996C9.03676 44.3336 6.65234 50.0905 6.65234 56.2113C6.65234 60.6991 10.3 64.3467 14.7878 64.3467H55.2578C59.7456 64.3467 63.3932 60.6991 63.3932 56.2113C63.3932 50.0875 61.0088 44.3276 56.6778 39.9996L56.6807 39.9966Z" fill="#BAD7FF"/>
<path d="M63.6928 60.5573L58.6991 55.5637C59.7079 54.1703 60.48 52.6053 60.9267 50.8924C61.8763 47.2596 61.3557 43.4759 59.4594 40.2336C55.5455 33.5477 46.9308 31.2964 40.2332 35.2044C36.9938 37.1007 34.6863 40.1448 33.7367 43.7717C32.7871 47.4046 33.3077 51.1883 35.204 54.4306C37.1003 57.67 40.1444 59.9775 43.7713 60.9271C44.9576 61.2348 46.1617 61.3886 47.3539 61.3886C49.8182 61.3886 52.247 60.7348 54.4302 59.4598C54.8266 59.229 55.1609 58.9302 55.5278 58.664L60.554 63.6902C60.9859 64.1221 61.5539 64.341 62.1219 64.341C62.6899 64.341 63.2579 64.1251 63.6898 63.6902C64.5566 62.8234 64.5566 61.4182 63.6898 60.5514L63.6928 60.5573ZM52.1878 55.6317C49.972 56.9274 47.3864 57.2854 44.8955 56.6375C42.4105 55.9867 40.3308 54.4069 39.0351 52.1912C37.7393 49.9754 37.3784 47.3839 38.0292 44.8989C38.6801 42.4139 40.2598 40.3342 42.4756 39.0384C43.9991 38.1479 45.6676 37.7249 47.3184 37.7249C50.6228 37.7249 53.8445 39.4259 55.6313 42.4789C56.9271 44.6947 57.288 47.2862 56.6371 49.7712C55.9863 52.2562 54.4036 54.3359 52.1878 55.6317Z" fill="#549BFF"/>
</svg>
