<svg width="77" height="69" viewBox="0 0 77 69" fill="none" xmlns="http://www.w3.org/2000/svg">
<g filter="url(#filter0_d_1426_4851)">
<path opacity="0.4" d="M72.2229 13.4506V47.5495C72.2086 51.1306 70.7725 54.5593 68.2304 57.0817C65.6883 59.6041 62.2485 61.0135 58.6674 61H18.0008C14.4197 61.0135 10.9799 59.6041 8.43786 57.0817C5.89579 54.5593 4.45967 51.1306 4.44531 47.5495V13.4506C4.45967 9.86948 5.89579 6.44072 8.43786 3.91836C10.9799 1.396 14.4197 -0.0134123 18.0008 9.62156e-05H58.6674C62.2485 -0.0134123 65.6883 1.396 68.2304 3.91836C70.7725 6.44072 72.2086 9.86948 72.2229 13.4506Z" fill="white"/>
<path opacity="0.4" d="M72.2229 13.4506V47.5495C72.2086 51.1306 70.7725 54.5593 68.2304 57.0817C65.6883 59.6041 62.2485 61.0135 58.6674 61H18.0008C14.4197 61.0135 10.9799 59.6041 8.43786 57.0817C5.89579 54.5593 4.45967 51.1306 4.44531 47.5495V13.4506C4.45967 9.86948 5.89579 6.44072 8.43786 3.91836C10.9799 1.396 14.4197 -0.0134123 18.0008 9.62156e-05H58.6674C62.2485 -0.0134123 65.6883 1.396 68.2304 3.91836C70.7725 6.44072 72.2086 9.86948 72.2229 13.4506Z" fill="url(#paint0_linear_1426_4851)"/>
<path d="M62.0564 19.486H45.112C44.4379 19.486 43.7914 19.2182 43.3147 18.7416C42.8381 18.2649 42.5703 17.6185 42.5703 16.9444C42.5703 16.2703 42.8381 15.6238 43.3147 15.1471C43.7914 14.6705 44.4379 14.4027 45.112 14.4027H62.0564C62.7305 14.4027 63.377 14.6705 63.8536 15.1471C64.3303 15.6238 64.598 16.2703 64.598 16.9444C64.598 17.6185 64.3303 18.2649 63.8536 18.7416C63.377 19.2182 62.7305 19.486 62.0564 19.486Z" fill="url(#paint1_linear_1426_4851)"/>
<path d="M62.0581 33.0417H48.5026C47.8285 33.0417 47.182 32.7739 46.7054 32.2973C46.2287 31.8206 45.9609 31.1741 45.9609 30.5C45.9609 29.8259 46.2287 29.1795 46.7054 28.7028C47.182 28.2262 47.8285 27.9584 48.5026 27.9584H62.0581C62.7322 27.9584 63.3787 28.2262 63.8554 28.7028C64.332 29.1795 64.5998 29.8259 64.5998 30.5C64.5998 31.1741 64.332 31.8206 63.8554 32.2973C63.3787 32.7739 62.7322 33.0417 62.0581 33.0417Z" fill="url(#paint2_linear_1426_4851)"/>
<path d="M62.0577 46.5971H55.2799C54.6059 46.5971 53.9594 46.3293 53.4827 45.8527C53.0061 45.376 52.7383 44.7295 52.7383 44.0555C52.7383 43.3814 53.0061 42.7349 53.4827 42.2582C53.9594 41.7816 54.6059 41.5138 55.2799 41.5138H62.0577C62.7318 41.5138 63.3783 41.7816 63.8549 42.2582C64.3316 42.7349 64.5994 43.3814 64.5994 44.0555C64.5994 44.7295 64.3316 45.376 63.8549 45.8527C63.3783 46.3293 62.7318 46.5971 62.0577 46.5971Z" fill="url(#paint3_linear_1426_4851)"/>
<path d="M18.6445 21.9667C18.6445 20.4185 19.1037 18.9049 19.9638 17.6176C20.824 16.3302 22.0466 15.3268 23.4771 14.7343C24.9075 14.1418 26.4815 13.9868 28.0001 14.2888C29.5186 14.5909 30.9135 15.3365 32.0083 16.4313C33.1031 17.5261 33.8487 18.921 34.1507 20.4395C34.4528 21.9581 34.2978 23.5321 33.7053 24.9625C33.1128 26.393 32.1094 27.6156 30.822 28.4758C29.5347 29.3359 28.0211 29.7951 26.4728 29.7951C24.3975 29.7924 22.4079 28.9667 20.9404 27.4992C19.4729 26.0317 18.6472 24.0421 18.6445 21.9667Z" fill="url(#paint4_linear_1426_4851)"/>
<path d="M40.0294 45.0011C40.0526 45.2371 40.026 45.4754 39.9514 45.7006C39.8767 45.9257 39.7556 46.1327 39.5958 46.3081C39.4361 46.4834 39.2413 46.6233 39.0241 46.7187C38.8069 46.814 38.5721 46.8627 38.3349 46.8615H14.6128C14.3755 46.8627 14.1407 46.814 13.9235 46.7187C13.7063 46.6233 13.5116 46.4834 13.3518 46.3081C13.1921 46.1327 13.071 45.9257 12.9963 45.7006C12.9216 45.4754 12.8951 45.2371 12.9183 45.0011C13.2003 42.2306 14.4359 39.6441 16.414 37.6839C18.3921 35.7237 20.9898 34.5116 23.7627 34.2549C25.5776 34.0889 27.4039 34.0889 29.2188 34.2549C31.9857 34.519 34.5754 35.7344 36.5467 37.6939C38.5179 39.6534 39.7487 42.2358 40.0294 45.0011Z" fill="url(#paint5_linear_1426_4851)"/>
</g>
<defs>
<filter id="filter0_d_1426_4851" x="0.445312" y="0" width="75.7773" height="69" filterUnits="userSpaceOnUse" color-interpolation-filters="sRGB">
<feFlood flood-opacity="0" result="BackgroundImageFix"/>
<feColorMatrix in="SourceAlpha" type="matrix" values="0 0 0 0 0 0 0 0 0 0 0 0 0 0 0 0 0 0 127 0" result="hardAlpha"/>
<feOffset dy="4"/>
<feGaussianBlur stdDeviation="2"/>
<feComposite in2="hardAlpha" operator="out"/>
<feColorMatrix type="matrix" values="0 0 0 0 0 0 0 0 0 0 0 0 0 0 0 0 0 0 0.25 0"/>
<feBlend mode="normal" in2="BackgroundImageFix" result="effect1_dropShadow_1426_4851"/>
<feBlend mode="normal" in="SourceGraphic" in2="effect1_dropShadow_1426_4851" result="shape"/>
</filter>
<linearGradient id="paint0_linear_1426_4851" x1="4.44531" y1="30.5" x2="72.2229" y2="30.5" gradientUnits="userSpaceOnUse">
<stop stop-color="#BAD7FF"/>
<stop offset="1" stop-color="#BABDFF"/>
</linearGradient>
<linearGradient id="paint1_linear_1426_4851" x1="42.5703" y1="16.9444" x2="64.598" y2="16.9444" gradientUnits="userSpaceOnUse">
<stop stop-color="#549BFF"/>
<stop offset="1" stop-color="#6D7CFF"/>
</linearGradient>
<linearGradient id="paint2_linear_1426_4851" x1="45.9609" y1="-10.1665" x2="64.5998" y2="-10.1665" gradientUnits="userSpaceOnUse">
<stop stop-color="#549BFF"/>
<stop offset="1" stop-color="#6D7CFF"/>
</linearGradient>
<linearGradient id="paint3_linear_1426_4851" x1="52.7383" y1="44.0555" x2="64.5994" y2="44.0555" gradientUnits="userSpaceOnUse">
<stop stop-color="#549BFF"/>
<stop offset="1" stop-color="#6D7CFF"/>
</linearGradient>
<linearGradient id="paint4_linear_1426_4851" x1="18.6445" y1="21.9667" x2="34.3012" y2="21.9667" gradientUnits="userSpaceOnUse">
<stop stop-color="#549BFF"/>
<stop offset="1" stop-color="#6D7CFF"/>
</linearGradient>
<linearGradient id="paint5_linear_1426_4851" x1="12.9183" y1="40.4938" x2="40.0294" y2="40.4938" gradientUnits="userSpaceOnUse">
<stop stop-color="#549BFF" stop-opacity="0.19"/>
<stop offset="1" stop-color="#6D7CFF"/>
</linearGradient>
</defs>
</svg>
