<svg width="17" height="17" viewBox="0 0 17 17" fill="none" xmlns="http://www.w3.org/2000/svg">
<path fill-rule="evenodd" clip-rule="evenodd" d="M8.15881 0.744629C7.92912 0.74473 7.70419 0.810083 7.51021 0.933075C7.31623 1.05607 7.16118 1.23164 7.06312 1.43934L5.21211 5.17517C5.20721 5.18398 5.20255 5.19292 5.19812 5.20198C5.18915 5.20332 5.18021 5.20487 5.17131 5.20664L1.09512 5.81044C0.863946 5.83288 0.644088 5.92126 0.4617 6.06506C0.279313 6.20886 0.142073 6.40202 0.0663104 6.62157C-0.00945264 6.84113 -0.0205498 7.07782 0.0343391 7.3035C0.089228 7.52918 0.207792 7.73434 0.375926 7.89457L3.35993 10.7725L3.36692 10.7783C3.37114 10.7823 3.37431 10.7873 3.37614 10.7927C3.37797 10.7982 3.37841 10.8041 3.37741 10.8098V10.8145L2.66638 14.9734V14.9746C2.62735 15.2001 2.65232 15.432 2.73846 15.644C2.8246 15.856 2.96845 16.0396 3.15369 16.174C3.33892 16.3084 3.55812 16.3881 3.7864 16.4042C4.01468 16.4203 4.24289 16.372 4.44513 16.2649L8.11685 14.3242C8.13008 14.3184 8.14437 14.3154 8.15881 14.3154C8.17325 14.3154 8.18754 14.3184 8.20077 14.3242L11.8725 16.2638C12.0746 16.3716 12.303 16.4204 12.5315 16.4047C12.7601 16.3891 12.9796 16.3095 13.1651 16.1751C13.3507 16.0408 13.4947 15.857 13.5809 15.6447C13.667 15.4324 13.6918 15.2002 13.6524 14.9746L12.9414 10.8133V10.8098C12.939 10.8051 12.9402 10.7981 12.9414 10.7935C12.9431 10.7877 12.9463 10.7825 12.9507 10.7783L12.9577 10.7725L15.9405 7.89341C16.1083 7.73312 16.2265 7.52805 16.2812 7.30255C16.3359 7.07705 16.3247 6.8406 16.249 6.62127C16.1732 6.40194 16.0362 6.20896 15.854 6.06523C15.6718 5.9215 15.4523 5.83307 15.2213 5.81044L11.1463 5.20664C11.1374 5.20487 11.1285 5.20332 11.1195 5.20198C11.1151 5.19292 11.1104 5.18398 11.1055 5.17517L9.2545 1.43934C9.15644 1.23164 9.00139 1.05607 8.80741 0.933075C8.61343 0.810083 8.3885 0.74473 8.15881 0.744629Z" fill="#434343"/>
</svg>
