<svg width="17" height="17" viewBox="0 0 17 17" fill="none" xmlns="http://www.w3.org/2000/svg">
<path fill-rule="evenodd" clip-rule="evenodd" d="M9.32305 4.65019C9.32305 5.62761 8.95471 6.56499 8.29906 7.25613C7.6434 7.94726 6.75414 8.33554 5.82691 8.33554C4.89967 8.33554 4.01042 7.94726 3.35476 7.25613C2.69911 6.56499 2.33076 5.62761 2.33076 4.65019C2.33076 3.67278 2.69911 2.73539 3.35476 2.04426C4.01042 1.35312 4.89967 0.964844 5.82691 0.964844C6.75414 0.964844 7.6434 1.35312 8.29906 2.04426C8.95471 2.73539 9.32305 3.67278 9.32305 4.65019ZM5.82691 9.56399C4.28152 9.56399 2.79942 10.2111 1.70666 11.363C0.613905 12.5149 0 14.0772 0 15.7062C0 15.8691 0.0613905 16.0254 0.170666 16.1406C0.279942 16.2558 0.428152 16.3205 0.582691 16.3205H11.0711C11.2257 16.3205 11.3739 16.2558 11.4832 16.1406C11.5924 16.0254 11.6538 15.8691 11.6538 15.7062C11.6538 14.0772 11.0399 12.5149 9.94716 11.363C8.8544 10.2111 7.3723 9.56399 5.82691 9.56399ZM15.7327 16.3205H13.0266C13.0814 16.1264 13.1105 15.92 13.1105 15.7062C13.1115 14.5162 12.8495 13.3423 12.3454 12.2775C11.8414 11.2126 11.109 10.2861 10.2064 9.57136C10.9944 9.53111 11.782 9.65996 12.5213 9.9501C13.2607 10.2402 13.9365 10.6856 14.5077 11.2593C15.0789 11.8329 15.5336 12.5228 15.8444 13.2872C16.1551 14.0516 16.3153 14.8746 16.3153 15.7062C16.3153 15.8691 16.254 16.0254 16.1447 16.1406C16.0354 16.2558 15.8872 16.3205 15.7327 16.3205ZM10.4884 8.33554C10.1458 8.33607 9.80499 8.2835 9.47688 8.17953C10.3164 7.21741 10.7815 5.9574 10.7798 4.65019C10.7815 3.34298 10.3164 2.08298 9.47688 1.12086C9.95753 0.968554 10.4637 0.927124 10.9608 0.999384C11.458 1.07164 11.9346 1.2559 12.3583 1.53962C12.7819 1.82335 13.1426 2.19989 13.4159 2.64365C13.6891 3.08742 13.8685 3.588 13.9419 4.11137C14.0153 4.63475 13.9809 5.16864 13.8411 5.67675C13.7013 6.18487 13.4594 6.6553 13.1317 7.05607C12.8041 7.45684 12.3984 7.77854 11.9423 7.99932C11.4862 8.2201 10.9903 8.33477 10.4884 8.33554Z" fill="#434343"/>
</svg>
