<svg width="11" height="11" viewBox="0 0 11 11" fill="none" xmlns="http://www.w3.org/2000/svg">
<path fill-rule="evenodd" clip-rule="evenodd" d="M10.7406 5.60282C10.7424 6.96634 10.2163 8.27763 9.27259 9.26181C8.78063 9.77751 8.18935 10.1882 7.53437 10.4693C6.8794 10.7503 6.1743 10.8958 5.46158 10.8969H5.44646H5.43133C4.71862 10.8958 4.01352 10.7503 3.35855 10.4693C2.70357 10.1882 2.11228 9.77751 1.62033 9.26181C1.02205 8.63621 0.586306 7.87346 0.351256 7.04036C0.116206 6.20726 0.0890233 5.32923 0.272089 4.48318C0.455155 3.63714 0.842884 2.84888 1.40131 2.18748C1.95974 1.52607 2.67184 1.01168 3.47522 0.689365C4.2786 0.367053 5.14876 0.246653 6.00947 0.338709C6.87019 0.430766 7.6952 0.732471 8.41224 1.2174C9.12929 1.70232 9.71649 2.35568 10.1224 3.12023C10.5283 3.88478 10.7406 4.7372 10.7406 5.60282ZM8.65545 8.24988C8.26554 7.77633 7.77553 7.39507 7.22067 7.13353C6.6658 6.87199 6.05987 6.73666 5.44646 6.73728C4.83304 6.73666 4.22711 6.87199 3.67225 7.13353C3.11738 7.39507 2.62738 7.77633 2.23747 8.24988C2.62738 8.72343 3.11738 9.10469 3.67225 9.36623C4.22711 9.62778 4.83304 9.76311 5.44646 9.76249C6.05987 9.76311 6.6658 9.62778 7.22067 9.36623C7.77553 9.10469 8.26554 8.72343 8.65545 8.24988ZM5.44646 5.98097C5.94792 5.98097 6.42884 5.78177 6.78342 5.42719C7.13801 5.0726 7.33721 4.59168 7.33721 4.09022C7.33721 3.58876 7.13801 3.10784 6.78342 2.75325C6.42884 2.39867 5.94792 2.19946 5.44646 2.19946C4.945 2.19946 4.46408 2.39867 4.10949 2.75325C3.75491 3.10784 3.5557 3.58876 3.5557 4.09022C3.5557 4.59168 3.75491 5.0726 4.10949 5.42719C4.46408 5.78177 4.945 5.98097 5.44646 5.98097Z" fill="#D1DDFF"/>
</svg>
