<svg width="13" height="13" viewBox="0 0 13 13" fill="none" xmlns="http://www.w3.org/2000/svg">
<path d="M5.75535 0.465131C6.12454 -0.0913012 6.9416 -0.091302 7.31079 0.465131L8.93019 2.90586C9.05421 3.09277 9.24139 3.22877 9.45748 3.28896L12.2792 4.07487C12.9225 4.25404 13.1749 5.03112 12.7598 5.55418L10.939 7.84855C10.7995 8.02425 10.728 8.2443 10.7376 8.46842L10.8621 11.3949C10.8905 12.062 10.2294 12.5423 9.6037 12.3091L6.85896 11.2864C6.64876 11.2081 6.41739 11.2081 6.20719 11.2864L3.46244 12.3091C2.8367 12.5423 2.17568 12.062 2.20407 11.3949L2.32857 8.46842C2.3381 8.2443 2.26661 8.02425 2.12716 7.84855L0.306316 5.55418C-0.108798 5.03112 0.143687 4.25404 0.786971 4.07487L3.60866 3.28896C3.82475 3.22877 4.01194 3.09277 4.13596 2.90586L5.75535 0.465131Z" fill="#D1DDFF"/>
</svg>
