<svg width="14" height="13" viewBox="0 0 14 13" fill="none" xmlns="http://www.w3.org/2000/svg">
<path d="M6.48973 0.465131C6.85892 -0.0913012 7.67598 -0.091302 8.04517 0.465131L9.66457 2.90586C9.78858 3.09277 9.97577 3.22877 10.1919 3.28896L13.0135 4.07487C13.6568 4.25404 13.9093 5.03112 13.4942 5.55418L11.6734 7.84855C11.5339 8.02425 11.4624 8.2443 11.472 8.46842L11.5965 11.3949C11.6248 12.062 10.9638 12.5423 10.3381 12.3091L7.59333 11.2864C7.38314 11.2081 7.15176 11.2081 6.94156 11.2864L4.19682 12.3091C3.57108 12.5423 2.91006 12.062 2.93844 11.3949L3.06295 8.46842C3.07248 8.2443 3.00098 8.02425 2.86154 7.84855L1.04069 5.55418C0.625577 5.03112 0.878062 4.25404 1.52135 4.07487L4.34304 3.28896C4.55913 3.22877 4.74631 3.09277 4.87033 2.90586L6.48973 0.465131Z" fill="#4B76F4"/>
</svg>
